<?xml version="1.0" encoding="utf-8"?>
<!-- Generator: Adobe Illustrator 23.0.2, SVG Export Plug-In . SVG Version: 6.00 Build 0)  -->
<svg version="1.1" id="Calque_1" xmlns="http://www.w3.org/2000/svg" xmlns:xlink="http://www.w3.org/1999/xlink" x="0px" y="0px"
	 viewBox="0 0 290 80" style="enable-background:new 0 0 290 80;" xml:space="preserve">
<g>
	<path d="M2.1,2.6h24.8v54.9h20.5V77H2.1V2.6z M41.1,68.1v-2.7h-25V11.5h-2.9v56.6H41.1z"/>
	<path d="M49.6,39.9c0-5.4,1-10.4,3.1-15.2c2-4.8,4.8-8.9,8.4-12.4c3.5-3.5,7.7-6.3,12.4-8.4c4.8-2,9.8-3.1,15.2-3.1
		c5.4,0,10.4,1,15.2,3.1c4.8,2,8.9,4.8,12.4,8.4c3.5,3.5,6.3,7.7,8.4,12.4c2,4.8,3.1,9.8,3.1,15.2c0,5.4-1,10.4-3.1,15.2
		c-2,4.8-4.8,8.9-8.4,12.4c-3.5,3.5-7.7,6.3-12.4,8.4c-4.8,2-9.8,3.1-15.2,3.1c-5.4,0-10.4-1-15.2-3.1c-4.8-2-8.9-4.8-12.4-8.4
		c-3.5-3.5-6.3-7.7-8.4-12.4C50.6,50.3,49.6,45.2,49.6,39.9z M60.1,39.9c0,3.9,0.7,7.6,2.2,11.1c1.5,3.5,3.5,6.5,6.1,9.1
		c2.6,2.6,5.6,4.6,9.1,6.1c3.5,1.5,7.2,2.2,11.1,2.2c3.9,0,7.6-0.7,11.1-2.2c3.5-1.5,6.5-3.5,9.1-6.1c2.6-2.6,4.6-5.6,6.1-9.1
		c1.5-3.5,2.2-7.2,2.2-11.1s-0.7-7.6-2.2-11.1c-1.5-3.5-3.5-6.5-6.1-9.1c-2.6-2.6-5.6-4.6-9.1-6.1c-3.5-1.5-7.2-2.2-11.1-2.2
		c-3.9,0-7.6,0.7-11.1,2.2c-3.5,1.5-6.5,3.5-9.1,6.1c-2.6,2.6-4.6,5.6-6.1,9.1C60.8,32.2,60.1,35.9,60.1,39.9z M88.6,65.5
		c-3.6,0-6.9-0.7-10-2c-3.1-1.3-5.8-3.2-8.1-5.5c-2.3-2.3-4.2-5.1-5.5-8.1c-1.3-3.1-2-6.4-2-10s0.7-6.9,2-10
		c1.3-3.1,3.2-5.8,5.5-8.1c2.3-2.3,5.1-4.2,8.1-5.5c3.1-1.3,6.4-2,10-2c3.6,0,6.9,0.7,10,2c3.1,1.3,5.8,3.2,8.1,5.5
		c2.3,2.3,4.2,5.1,5.5,8.1c1.3,3.1,2,6.4,2,10s-0.7,6.9-2,10c-1.3,3.1-3.2,5.8-5.5,8.1c-2.3,2.3-5.1,4.2-8.1,5.5
		C95.5,64.9,92.2,65.5,88.6,65.5z M73,39.9c0,2.2,0.4,4.2,1.2,6.1c0.8,1.9,1.9,3.6,3.3,5c1.4,1.4,3.1,2.5,5,3.3
		c1.9,0.8,3.9,1.2,6.1,1.2c2.2,0,4.2-0.4,6.1-1.2c1.9-0.8,3.6-1.9,5-3.3c1.4-1.4,2.5-3.1,3.3-5c0.8-1.9,1.2-3.9,1.2-6.1
		c0-2.2-0.4-4.2-1.2-6.1c-0.8-1.9-1.9-3.6-3.3-5c-1.4-1.4-3.1-2.5-5-3.3c-1.9-0.8-3.9-1.2-6.1-1.2c-2.2,0-4.2,0.4-6.1,1.2
		c-1.9,0.8-3.6,1.9-5,3.3c-1.4,1.4-2.5,3.1-3.3,5C73.4,35.7,73,37.7,73,39.9z"/>
	<path d="M181.2,27.9c-1.3-1.2-3-2.1-5-2.7c-2-0.6-4-0.9-5.9-0.9c-2.2,0-4.1,0.4-5.9,1.2c-1.8,0.8-3.3,1.9-4.6,3.2
		c-1.3,1.4-2.3,3-3.1,5c-0.7,1.9-1.1,4-1.1,6.2c0,2.2,0.4,4.3,1.2,6.2c0.8,1.9,1.9,3.6,3.3,5c1.4,1.4,3.1,2.5,5,3.2
		c1.9,0.8,3.9,1.2,6.1,1.2c2.5,0,4.8-0.5,6.9-1.6c2.1-1.1,3.9-2.5,5.4-4.4h-6.7V33.8h28.7v24.8c-1.7,3.1-3.8,5.8-6.1,8.3
		c-2.4,2.5-5,4.6-8,6.4c-2.9,1.8-6.1,3.2-9.5,4.1c-3.4,1-7,1.4-10.6,1.4c-5.4,0-10.4-1-15.2-3c-4.8-2-8.9-4.8-12.4-8.3
		c-3.5-3.5-6.3-7.6-8.4-12.4c-2-4.8-3.1-9.9-3.1-15.4c0-5.4,1-10.4,2.9-15.2c1.9-4.8,4.6-8.9,8-12.4c3.4-3.5,7.4-6.3,12.1-8.4
		c4.6-2,9.7-3.1,15-3.1c4.2,0,7.8,0.4,10.8,1.2c3,0.8,5.6,1.7,7.7,2.8c2.5,1.2,4.5,2.5,6.1,3.9L181.2,27.9z M182.3,13.5
		c-1-0.4-2-0.8-3.2-1.1c-1-0.3-2.3-0.6-3.7-0.8c-1.4-0.2-3-0.3-4.7-0.3c-3.9,0-7.6,0.7-11,2.1c-3.4,1.4-6.4,3.4-8.9,5.9
		c-2.5,2.5-4.5,5.5-6,9c-1.5,3.5-2.2,7.4-2.2,11.6c0,4.2,0.7,8.1,2.2,11.6c1.5,3.5,3.5,6.5,6.1,9c2.6,2.5,5.6,4.4,9.1,5.9
		c3.5,1.4,7.2,2.1,11.1,2.1c5.1,0,9.8-1.2,13.9-3.6c4.2-2.4,7.5-5.6,10.2-9.7V40.5h-11.8v2.7h8.9v11.2c-2.3,3.4-5.3,6.1-9,8.1
		c-3.7,2-7.8,3-12.2,3c-3.6,0-6.9-0.6-10-1.8c-3.1-1.2-5.8-3-8.1-5.2c-2.3-2.3-4.2-5-5.5-8.1c-1.3-3.2-2-6.6-2-10.4s0.6-7.3,2-10.4
		c1.3-3.2,3.1-5.9,5.4-8.1c2.3-2.3,4.9-4,8-5.2c3-1.2,6.4-1.8,9.9-1.8c1.3,0,2.6,0.1,3.8,0.3c1.2,0.2,2.2,0.4,3.1,0.7
		c1,0.3,2,0.6,2.9,0.9L182.3,13.5z"/>
	<path d="M209.9,39.9c0-5.4,1-10.4,3.1-15.2c2-4.8,4.8-8.9,8.4-12.4c3.5-3.5,7.7-6.3,12.4-8.4c4.8-2,9.8-3.1,15.2-3.1
		c5.4,0,10.4,1,15.2,3.1c4.8,2,8.9,4.8,12.4,8.4c3.5,3.5,6.3,7.7,8.4,12.4c2,4.8,3.1,9.8,3.1,15.2c0,5.4-1,10.4-3.1,15.2
		c-2,4.8-4.8,8.9-8.4,12.4c-3.5,3.5-7.7,6.3-12.4,8.4c-4.8,2-9.8,3.1-15.2,3.1c-5.4,0-10.4-1-15.2-3.1c-4.8-2-8.9-4.8-12.4-8.4
		C217.8,64,215,59.8,213,55C210.9,50.3,209.9,45.2,209.9,39.9z M220.4,39.9c0,3.9,0.7,7.6,2.2,11.1c1.5,3.5,3.5,6.5,6.1,9.1
		c2.6,2.6,5.6,4.6,9.1,6.1c3.5,1.5,7.2,2.2,11.1,2.2c3.9,0,7.6-0.7,11.1-2.2c3.5-1.5,6.5-3.5,9.1-6.1c2.6-2.6,4.6-5.6,6.1-9.1
		c1.5-3.5,2.2-7.2,2.2-11.1s-0.7-7.6-2.2-11.1c-1.5-3.5-3.5-6.5-6.1-9.1c-2.6-2.6-5.6-4.6-9.1-6.1c-3.5-1.5-7.2-2.2-11.1-2.2
		c-3.9,0-7.6,0.7-11.1,2.2c-3.5,1.5-6.5,3.5-9.1,6.1c-2.6,2.6-4.6,5.6-6.1,9.1C221.1,32.2,220.4,35.9,220.4,39.9z M249,65.5
		c-3.6,0-6.9-0.7-10-2c-3.1-1.3-5.8-3.2-8.1-5.5c-2.3-2.3-4.2-5.1-5.5-8.1c-1.3-3.1-2-6.4-2-10s0.7-6.9,2-10
		c1.3-3.1,3.2-5.8,5.5-8.1c2.3-2.3,5.1-4.2,8.1-5.5c3.1-1.3,6.4-2,10-2s6.9,0.7,10,2c3.1,1.3,5.8,3.2,8.1,5.5
		c2.3,2.3,4.2,5.1,5.5,8.1c1.3,3.1,2,6.4,2,10s-0.7,6.9-2,10c-1.3,3.1-3.2,5.8-5.5,8.1c-2.3,2.3-5.1,4.2-8.1,5.5
		C255.8,64.9,252.5,65.5,249,65.5z M233.3,39.9c0,2.2,0.4,4.2,1.2,6.1c0.8,1.9,1.9,3.6,3.3,5c1.4,1.4,3.1,2.5,5,3.3
		c1.9,0.8,3.9,1.2,6.1,1.2c2.2,0,4.2-0.4,6.1-1.2c1.9-0.8,3.6-1.9,5-3.3c1.4-1.4,2.5-3.1,3.3-5c0.8-1.9,1.2-3.9,1.2-6.1
		c0-2.2-0.4-4.2-1.2-6.1c-0.8-1.9-1.9-3.6-3.3-5c-1.4-1.4-3.1-2.5-5-3.3c-1.9-0.8-3.9-1.2-6.1-1.2c-2.2,0-4.2,0.4-6.1,1.2
		c-1.9,0.8-3.6,1.9-5,3.3c-1.4,1.4-2.5,3.1-3.3,5C233.7,35.7,233.3,37.7,233.3,39.9z"/>
</g>
</svg>
